<?xml version="1.0" encoding="utf-8"?>
<?xml-stylesheet type="text/xsl" href="rss1.xsl"?>
<rss version="2.0" xmlns:atom="http://www.w3.org/2005/Atom" xmlns:content="http://purl.org/rss/1.0/modules/content/" xmlns:dc="http://purl.org/dc/elements/1.1/" xmlns:media="http://search.yahoo.com/mrss/">
<channel>
 <title>Getty</title>
 <link>http://www.gettyimg.com/</link>
 <atom:link href="http://www.gettyimg.com/" rel="self" type="application/rss+xml" />

 
                <item>
                <title><![CDATA[【Cinema Center】MOVIE - Toy Story (1999-2019) 1080p 10bit BluRay DUAL HEVC - PSA]]></title>
                <link><![CDATA[https://sharemania.us/threads/toy-story-1999-2019-1080p-10bit-bluray-dual-hevc-psa.220210/]]></link>
                <description><![CDATA[<article>
<blockquote class="messageText SelectQuoteContainer ugc baseHtml">
<div style="text-align: center"><img src="https://images2.imgbox.com/1b/2d/7xtt70Ki_o.jpg" class="bbCodeImage LbImage" alt="[​IMG]" data-url="https://images2.imgbox.com/1b/2d/7xtt70Ki_o.jpg" style=""> <br>
<img src="https://images2.imgbox.com/cd/d4/9DA5Ozx7_o.jpg" class="bbCodeImage LbImage" alt="[​IMG]" data-url="https://images2.imgbox.com/cd/d4/9DA5Ozx7_o.jpg" style=""> <br>
<img src="https://images2.imgbox.com/0a/02/XfQluZX1_o.jpg" class="bbCodeImage LbImage" alt="[​IMG]" data-url="https://images2.imgbox.com/0a/02/XfQluZX1_o.jpg" style=""> <br>
<img src="https://images2.imgbox.com/56/ae/wHsEydFR_o.jpg" class="bbCodeImage LbImage" alt="[​IMG]" data-url="https://images2.imgbox.com/56/ae/wHsEydFR_o.jpg" style=""> <br>
Credits to PSArips | psa.re<br>
​</div>I just added the audio and subtitles in portuguese from brazilian torrents<br>
<br>
<div class="ToggleTriggerAnchor bbCodeSpoilerContainer">
<button type="button" class="button bbCodeSpoilerButton ToggleTrigger Tooltip JsOnly" data-target="> .SpoilerTarget"><span>Spoiler: <span class="SpoilerTitle">Toy Story 1995</span></span></button>
<div class="SpoilerTarget bbCodeSpoilerText">General<br>
Unique ID : 42244865960354803481633380895819942214 (0x1FC810B33D22D58629409B715BA1C946)<br>
Complete name : R:\Videos\Filmes\02 - Animações\Toy Story (1995-2019)\Toy.Story.1995.1080p.10bit.BluRay.DUAL.6CH.x265.HEVC-PSA.mkv<br>
Format : Matroska<br>
Format version : Version 4<br>
File size : 1.50 GiB<br>
Duration : 1 h 21 min<br>
Overall bit rate : 2 644 kb/s<br>
Movie name : Toy.Story.1995.1080p.10bit.BluRay.6CH.x265.HEVC-PSA<br>
Encoded date : UTC 2023-05-02 10:47:13<br>
Writing application : mkvmerge v75.0.0 ('Goliath') 64-bit<br>
Writing library : libebml v1.4.4 + libmatroska v1.7.1<br>
Video<br>
ID : 1<br>
Format : HEVC<br>
Format/Info : High Efficiency Video Coding<br>
Format profile : Main 10@L4@Main<br>
Codec ID : V_MPEGH/ISO/HEVC<br>
Duration : 1 h 21 min<br>
Bit rate : 2 313 kb/s<br>
Width : 1 920 pixels<br>
Height : 1 080 pixels<br>
Display aspect ratio : 16:9<br>
Frame rate mode : Constant<br>
Frame rate : 23.976 (24000/1001) FPS<br>
Color space : YUV<br>
Chroma subsampling : 4:2:0<br>
Bit depth : 10 bits<br>
Bits/(Pixel*Frame) : 0.047<br>
Stream size : 1.31 GiB (87%)<br>
Default : Yes<br>
Forced : No<br>
Color range : Limited<br>
Color primaries : BT.709<br>
Transfer characteristics : BT.709<br>
Matrix coefficients : BT.709<br>
Audio #1<br>
ID : 2<br>
Format : AAC LC SBR<br>
Format/Info : Advanced Audio Codec Low Complexity with Spectral Band Replication<br>
Commercial name : HE-AAC<br>
Format settings : Explicit<br>
Codec ID : A_AAC-2<br>
Duration : 1 h 21 min<br>
Bit rate : 214 kb/s<br>
Channel(s) : 6 channels<br>
Channel layout : C L R Ls Rs LFE<br>
Sampling rate : 48.0 kHz<br>
Frame rate : 23.438 FPS (2048 SPF)<br>
Compression mode : Lossy<br>
Delay relative to video : 23 ms<br>
Stream size : 124 MiB (8%)<br>
Language : English<br>
Default : Yes<br>
Forced : No<br>
Audio #2<br>
ID : 3<br>
Format : AAC LC<br>
Format/Info : Advanced Audio Codec Low Complexity<br>
Codec ID : A_AAC-2<br>
Duration : 1 h 21 min<br>
Bit rate : 126 kb/s<br>
Channel(s) : 2 channels<br>
Channel layout : L R<br>
Sampling rate : 44.1 kHz<br>
Frame rate : 43.066 FPS (1024 SPF)<br>
Compression mode : Lossy<br>
Stream size : 73.3 MiB (5%)<br>
Language : Portuguese<br>
Default : Yes<br>
Forced : No<br>
Text #1<br>
ID : 4<br>
Format : UTF-8<br>
Codec ID : S_TEXT/UTF8<br>
Codec ID/Info : UTF-8 Plain Text<br>
Duration : 1 h 16 min<br>
Bit rate : 59 b/s<br>
Frame rate : 0.211 FPS<br>
Count of elements : 965<br>
Stream size : 33.0 KiB (0%)<br>
Language : Portuguese (BR)<br>
Default : Yes<br>
Forced : No<br>
Text #2<br>
ID : 5<br>
Format : UTF-8<br>
Codec ID : S_TEXT/UTF8<br>
Codec ID/Info : UTF-8 Plain Text<br>
Duration : 1 h 18 min<br>
Bit rate : 70 b/s<br>
Frame rate : 0.244 FPS<br>
Count of elements : 1144<br>
Stream size : 40.1 KiB (0%)<br>
Language : English<br>
Default : No<br>
Forced : No</div>
</div>
<div class="ToggleTriggerAnchor bbCodeSpoilerContainer">
<button type="button" class="button bbCodeSpoilerButton ToggleTrigger Tooltip JsOnly" data-target="> .SpoilerTarget"><span>Spoiler: <span class="SpoilerTitle">Toy Story 1999</span></span></button>
<div class="SpoilerTarget bbCodeSpoilerText">General<br>
Unique ID : 281385389012342734235312074996429420446 (0xD3B0DACB136DA558D6617AAA7700F79E)<br>
Complete name : R:\Videos\Filmes\02 - Animações\Toy Story (1995-2019)\Toy.Story2.1999.REPACK.1080p.10bit.BluRay.DUAL.6CH.x265.HEVC-PSA.mkv<br>
Format : Matroska<br>
Format version : Version 4<br>
File size : 1.88 GiB<br>
Duration : 1 h 32 min<br>
Overall bit rate : 2 904 kb/s<br>
Movie name : PSArips.com | Toy.Story.2.1999.REPACK.1080p.10bit.BluRay.6CH.x265.HEVC-PSA<br>
Encoded date : UTC 2023-04-23 22:35:23<br>
Writing application : mkvmerge v75.0.0 ('Goliath') 64-bit<br>
Writing library : libebml v1.4.4 + libmatroska v1.7.1<br>
Video<br>
ID : 1<br>
Format : HEVC<br>
Format/Info : High Efficiency Video Coding<br>
Format profile : Main 10@L4@Main<br>
Codec ID : V_MPEGH/ISO/HEVC<br>
Duration : 1 h 32 min<br>
Bit rate : 2 059 kb/s<br>
Width : 1 920 pixels<br>
Height : 1 080 pixels<br>
Display aspect ratio : 16:9<br>
Frame rate mode : Constant<br>
Frame rate : 23.976 (24000/1001) FPS<br>
Color space : YUV<br>
Chroma subsampling : 4:2:0<br>
Bit depth : 10 bits<br>
Bits/(Pixel*Frame) : 0.041<br>
Stream size : 1.33 GiB (71%)<br>
Default : Yes<br>
Forced : No<br>
Color range : Limited<br>
Color primaries  : BT.709<br>
Transfer characteristics : BT.709<br>
Matrix coefficients : BT.709<br>
Audio #1<br>
ID : 2<br>
Format : AAC LC SBR<br>
Format/Info : Advanced Audio Codec Low Complexity with Spectral Band Replication<br>
Commercial name : HE-AAC<br>
Format settings : Explicit<br>
Codec ID : A_AAC-2<br>
Duration : 1 h 32 min<br>
Bit rate : 215 kb/s<br>
Channel(s) : 6 channels<br>
Channel layout : C L R Ls Rs LFE<br>
Sampling rate : 48.0 kHz<br>
Frame rate : 23.438 FPS (2048 SPF)<br>
Compression mode : Lossy<br>
Delay relative to video : 23 ms<br>
Stream size : 142 MiB (7%)<br>
Language : English<br>
Default : Yes<br>
Forced : No<br>
Audio #2<br>
ID : 3<br>
Format : AC-3<br>
Format/Info : Audio Coding 3<br>
Commercial name : Dolby Digital<br>
Format settings : Dolby Surround EX<br>
Codec ID : A_AC3<br>
Duration : 1 h 32 min<br>
Bit rate mode : Constant<br>
Bit rate : 640 kb/s<br>
Channel(s) : 6 channels<br>
Channel layout : L R C LFE Ls Rs<br>
Sampling rate : 48.0 kHz<br>
Frame rate : 31.250 FPS (1536 SPF)<br>
Compression mode : Lossy<br>
Stream size : 425 MiB (22%)<br>
Title : Português 5.1 - LAPUMiA<br>
Language : Portuguese<br>
Service kind : Complete Main<br>
Default : No<br>
Forced : No<br>
Text #1<br>
ID : 4<br>
Format : UTF-8<br>
Codec ID : S_TEXT/UTF8<br>
Codec ID/Info : UTF-8 Plain Text<br>
Duration : 1 h 28 min<br>
Bit rate : 64 b/s<br>
Frame rate : 0.220 FPS<br>
Count of elements : 1168<br>
Stream size : 42.1 KiB (0%)<br>
Language : Portuguese (BR)<br>
Default : Yes<br>
Forced : No<br>
Text #2<br>
ID : 5<br>
Format : UTF-8<br>
Codec ID : S_TEXT/UTF8<br>
Codec ID/Info : UTF-8 Plain Text<br>
Duration : 1 h 19 min<br>
Bit rate : 1 b/s<br>
Frame rate : 0.009 FPS<br>
Count of elements : 43<br>
Stream size : 904 Bytes (0%)<br>
Title : pt-BR forced<br>
Language : Portuguese (BR)<br>
Default : No<br>
Forced : No<br>
Text #3<br>
ID : 6<br>
Format : UTF-8<br>
Codec ID : S_TEXT/UTF8<br>
Codec ID/Info : UTF-8 Plain Text<br>
Duration : 1 h 28 min<br>
Bit rate : 65 b/s<br>
Frame rate : 0.223 FPS<br>
Count of elements : 1185<br>
Stream size : 42.4 KiB (0%)<br>
Language : English<br>
Default : No<br>
Forced : No</div>
</div>
<div class="ToggleTriggerAnchor bbCodeSpoilerContainer">
<button type="button" class="button bbCodeSpoilerButton ToggleTrigger Tooltip JsOnly" data-target="> .SpoilerTarget"><span>Spoiler: <span class="SpoilerTitle">Toy Story 2010</span></span></button>
<div class="SpoilerTarget bbCodeSpoilerText">General<br>
Unique ID : 189213261390868237290118736207252314246 (0x8E59260A91E6879CB3A89E1ADCA85886)<br>
Complete name : R:\Videos\Filmes\02 - Animações\Toy Story (1995-2019)\Toy.Story3.2010.1080p.10bit.BluRay.DUAL.8CH.x265.HEVC-PSA.mkv<br>
Format : Matroska<br>
Format version : Version 4<br>
File size : 2.25 GiB<br>
Duration : 1 h 43 min<br>
Overall bit rate : 3 124 kb/s<br>
Movie name : Toy Story 2 2010 -LAPUMiA.NeT<br>
Encoded date : UTC 2023-04-23 23:08:51<br>
Writing application : mkvmerge v75.0.0 ('Goliath') 64-bit<br>
Writing library : libebml v1.4.4 + libmatroska v1.7.1<br>
Video<br>
ID : 1<br>
Format : HEVC<br>
Format/Info : High Efficiency Video Coding<br>
Format profile : Main 10@L4@Main<br>
Codec ID : V_MPEGH/ISO/HEVC<br>
Duration : 1 h 42 min<br>
Bit rate : 2 197 kb/s<br>
Width : 1 920 pixels<br>
Height : 1 080 pixels<br>
Display aspect ratio : 16:9<br>
Frame rate mode : Constant<br>
Frame rate : 23.976 (24000/1001) FPS<br>
Color space : YUV<br>
Chroma subsampling : 4:2:0<br>
Bit depth : 10 bits<br>
Bits/(Pixel*Frame) : 0.044<br>
Stream size : 1.57 GiB (70%)<br>
Default : Yes<br>
Forced : No<br>
Color range : Limited<br>
Color primaries : BT.709<br>
Transfer characteristics : BT.709<br>
Matrix coefficients : BT.709<br>
Audio #1<br>
ID : 2<br>
Format : AAC LC SBR<br>
Format/Info : Advanced Audio Codec Low Complexity with Spectral Band Replication<br>
Commercial name : HE-AAC<br>
Format settings : Explicit<br>
Codec ID : A_AAC-2<br>
Duration : 1 h 42 min<br>
Bit rate : 296 kb/s<br>
Channel(s) : 8 channels<br>
Channel layout : C L R Ls Rs Lw Rw LFE<br>
Sampling rate : 48.0 kHz<br>
Frame rate : 23.438 FPS (2048 SPF)<br>
Compression mode : Lossy<br>
Delay relative to video : 31 ms<br>
Stream size : 217 MiB (9%)<br>
Language : English<br>
Default : Yes<br>
Forced : No<br>
Audio #2<br>
ID : 3<br>
Format : AC-3<br>
Format/Info : Audio Coding 3<br>
Commercial name : Dolby Digital<br>
Format settings : Dolby Surround EX<br>
Codec ID : A_AC3<br>
Duration : 1 h 43 min<br>
Bit rate mode : Constant<br>
Bit rate : 640 kb/s<br>
Channel(s) : 6 channels<br>
Channel layout : L R C LFE Ls Rs<br>
Sampling rate : 48.0 kHz<br>
Frame rate : 31.250 FPS (1536 SPF)<br>
Compression mode : Lossy<br>
Stream size : 472 MiB (20%)<br>
Title : Português 5.1 - LAPUMiA<br>
Language : Portuguese<br>
Service kind : Complete Main<br>
Default : No<br>
Forced : No<br>
Text #1<br>
ID  : 4<br>
Format : UTF-8<br>
Codec ID : S_TEXT/UTF8<br>
Codec ID/Info : UTF-8 Plain Text<br>
Duration : 1 h 36 min<br>
Bit rate : 52 b/s<br>
Frame rate : 0.199 FPS<br>
Count of elements : 1152<br>
Stream size : 37.0 KiB (0%)<br>
Language : Portuguese (BR)<br>
Default : Yes<br>
Forced : No<br>
Text #2<br>
ID : 5<br>
Format : UTF-8<br>
Codec ID : S_TEXT/UTF8<br>
Codec ID/Info : UTF-8 Plain Text<br>
Duration : 8 min 46 s<br>
Bit rate : 8 b/s<br>
Frame rate : 0.040 FPS<br>
Count of elements : 21<br>
Stream size : 587 Bytes (0%)<br>
Title : pt-Br forced<br>
Language : Portuguese (BR)<br>
Default : No<br>
Forced : No<br>
Text #3<br>
ID : 6<br>
Format : UTF-8<br>
Codec ID : S_TEXT/UTF8<br>
Codec ID/Info : UTF-8 Plain Text<br>
Duration : 1 h 36 min<br>
Bit rate : 59 b/s<br>
Frame rate : 0.215 FPS<br>
Count of elements : 1245<br>
Stream size : 42.4 KiB (0%)<br>
Language : English<br>
Default : No<br>
Forced : No</div>
</div>
<div class="ToggleTriggerAnchor bbCodeSpoilerContainer">
<button type="button" class="button bbCodeSpoilerButton ToggleTrigger Tooltip JsOnly" data-target="> .SpoilerTarget"><span>Spoiler: <span class="SpoilerTitle">Toy Story 2019</span></span></button>
<div class="SpoilerTarget bbCodeSpoilerText">General<br>
Unique ID : 204239034670319013324222768435765371169 (0x99A701DC580989C3716BD0D7C0A6E121)<br>
Complete name : R:\Videos\Filmes\02 - Animações\Toy Story (1995-2019)\Toy.Story4.2019.1080p.10bit.BluRay.DUAL.8CH.x265.HEVC-PSA.mkv<br>
Format : Matroska<br>
Format version : Version 4<br>
File size : 1.76 GiB<br>
Duration : 1 h 40 min<br>
Overall bit rate : 2 523 kb/s<br>
Movie name : Toy.Story.4.2019.1080p.10bit.BluRay.DUAL.8CH.x265.HEVC-PSA<br>
Encoded date : UTC 2023-04-24 20:58:10<br>
Writing application : mkvmerge v75.0.0 ('Goliath') 64-bit<br>
Writing library : libebml v1.4.4 + libmatroska v1.7.1<br>
Video<br>
ID : 1<br>
Format : HEVC<br>
Format/Info : High Efficiency Video Coding<br>
Format profile : Main 10@L4@Main<br>
Codec ID : V_MPEGH/ISO/HEVC<br>
Duration : 1 h 40 min<br>
Bit rate : 1 858 kb/s<br>
Width : 1 920 pixels<br>
Height : 808 pixels<br>
Display aspect ratio : 2.40:1<br>
Frame rate mode : Constant<br>
Frame rate : 23.976 (24000/1001) FPS<br>
Color space : YUV<br>
Chroma subsampling : 4:2:0<br>
Bit depth : 10 bits<br>
Bits/(Pixel*Frame) : 0.050<br>
Stream size : 1.30 GiB (74%)<br>
Default : Yes<br>
Forced : No<br>
Audio #1<br>
ID : 2<br>
Format : AAC LC SBR<br>
Format/Info : Advanced Audio Codec Low Complexity with Spectral Band Replication<br>
Commercial name : HE-AAC<br>
Format settings : Explicit<br>
Codec ID : A_AAC-2<br>
Duration : 1 h 40 min<br>
Bit rate : 280 kb/s<br>
Channel(s) : 8 channels<br>
Channel layout : C L R Ls Rs Lw Rw LFE<br>
Sampling rate : 48.0 kHz<br>
Frame rate : 23.438 FPS (2048 SPF)<br>
Compression mode : Lossy<br>
Delay relative to video : 31 ms<br>
Stream size : 200 MiB (11%)<br>
Language : English<br>
Default : Yes<br>
Forced : No<br>
Audio #2<br>
ID : 3<br>
Format : AC-3<br>
Format/Info : Audio Coding 3<br>
Commercial name : Dolby Digital<br>
Codec ID : A_AC3<br>
Duration : 1 h 40 min<br>
Bit rate mode : Constant<br>
Bit rate : 384 kb/s<br>
Channel(s) : 6 channels<br>
Channel layout : L R C LFE Ls Rs<br>
Sampling rate : 48.0 kHz<br>
Frame rate : 31.250 FPS (1536 SPF)<br>
Compression mode : Lossy<br>
Stream size : 275 MiB (15%)<br>
Language : Portuguese<br>
Service kind : Complete Main<br>
Default : No<br>
Forced : No<br>
Text #1<br>
ID : 4<br>
Format : UTF-8<br>
Codec ID : S_TEXT/UTF8<br>
Codec ID/Info : UTF-8 Plain Text<br>
Duration : 1 h 39 min<br>
Bit rate : 63 b/s<br>
Frame rate : 0.280 FPS<br>
Count of elements : 1663<br>
Stream size : 46.0 KiB (0%)<br>
Language : Portuguese (BR)<br>
Default : Yes<br>
Forced : No<br>
Text #2<br>
ID : 5<br>
Format : UTF-8<br>
Codec ID : S_TEXT/UTF8<br>
Codec ID/Info : UTF-8 Plain Text<br>
Duration : 1 h 39 min<br>
Bit rate : 64 b/s<br>
Frame rate : 0.302 FPS<br>
Count of elements : 1807<br>
Stream size : 47.2 KiB (0%)<br>
Language : English<br>
Default : No<br>
Forced : No<br>
Text #3<br>
ID : 6<br>
Format : UTF-8<br>
Codec ID : S_TEXT/UTF8<br>
Codec ID/Info : UTF-8 Plain Text<br>
Duration : 1 h 39 min<br>
Bit rate : 77 b/s<br>
Frame rate : 0.346 FPS<br>
Count of elements : 2062<br>
Stream size : 56.5 KiB (0%)<br>
Title : SDH<br>
Language : English<br>
Default : No<br>
Forced : No</div>
</div><br>
Download:<br>
<div class="bbCodeBlock bbCodeVfcHH HiddenContent">
<div class="attribution type">Hidden Content:</div>
<blockquote>You must either reply or click 'Like' to see the hidden information contained here.</blockquote>
</div>
<div class="messageTextEndMarker">&nbsp;</div>
</blockquote>
</article>]]></description>
                <author><![CDATA[rodriggam]]></author>
                </item>

                </channel></rss>